<?xml version="1.0" encoding="utf-8"?>
<!-- Generator: Adobe Illustrator 28.0.0, SVG Export Plug-In . SVG Version: 6.00 Build 0)  -->
<svg version="1.0" id="Layer_1" xmlns="http://www.w3.org/2000/svg" xmlns:xlink="http://www.w3.org/1999/xlink" x="0px" y="0px"
	 viewBox="0 0 1920 1080" style="enable-background:new 0 0 1920 1080;" xml:space="preserve">
<style type="text/css">
	.st0{fill:#404F94;}
</style>
<g>
	<path class="st0" d="M747.05,476.65c-10.26,0-19.06-2.15-26.39-6.45c-7.33-4.3-12.97-10.43-16.93-18.4
		c-3.96-7.96-5.94-17.37-5.94-28.22c0-8.11,1.12-15.42,3.37-21.92c2.25-6.5,5.47-12.07,9.67-16.71c4.2-4.64,9.36-8.18,15.47-10.63
		c6.11-2.44,13.02-3.67,20.74-3.67c5.86,0,11.51,0.83,16.93,2.49c5.42,1.66,10.09,4.01,14,7.04c1.56,1.08,2.59,2.3,3.08,3.67
		c0.49,1.37,0.56,2.66,0.22,3.88c-0.34,1.22-0.98,2.25-1.91,3.08c-0.93,0.83-2.08,1.27-3.44,1.32c-1.37,0.05-2.84-0.46-4.4-1.54
		c-3.42-2.64-7.16-4.57-11.21-5.79c-4.06-1.22-8.38-1.83-12.97-1.83c-7.53,0-13.9,1.59-19.13,4.76c-5.23,3.18-9.19,7.77-11.87,13.78
		c-2.69,6.01-4.03,13.37-4.03,22.06c0,8.6,1.34,15.96,4.03,22.06c2.69,6.11,6.65,10.75,11.87,13.93c5.23,3.18,11.6,4.76,19.13,4.76
		c4.59,0,8.96-0.63,13.12-1.91c4.15-1.27,7.99-3.23,11.51-5.86c1.56-1.07,3.01-1.56,4.32-1.47c1.32,0.1,2.42,0.51,3.3,1.25
		c0.88,0.73,1.49,1.71,1.83,2.93c0.34,1.22,0.32,2.47-0.07,3.74c-0.39,1.27-1.27,2.4-2.64,3.37c-4.01,3.42-8.77,5.99-14.29,7.7
		C758.9,475.8,753.11,476.65,747.05,476.65z"/>
	<path class="st0" d="M841.46,476.65c-9.77,0-18.23-2.17-25.36-6.52c-7.13-4.35-12.68-10.5-16.64-18.47
		c-3.96-7.96-5.94-17.32-5.94-28.07c0-8.11,1.12-15.42,3.37-21.92c2.25-6.5,5.45-12.07,9.6-16.71c4.15-4.64,9.19-8.18,15.1-10.63
		c5.91-2.44,12.53-3.67,19.86-3.67c9.77,0,18.23,2.15,25.36,6.45c7.13,4.3,12.65,10.41,16.56,18.32c3.91,7.92,5.86,17.25,5.86,28
		c0,8.11-1.12,15.44-3.37,21.99c-2.25,6.55-5.45,12.17-9.6,16.86c-4.15,4.69-9.16,8.26-15.03,10.7
		C855.38,475.43,848.79,476.65,841.46,476.65z M841.46,464.63c7.04,0,13.05-1.61,18.03-4.84s8.82-7.92,11.51-14.07
		c2.69-6.16,4.03-13.53,4.03-22.14c0-13-2.91-23.06-8.72-30.2c-5.82-7.13-14.1-10.7-24.85-10.7c-7.04,0-13.07,1.59-18.1,4.76
		c-5.03,3.18-8.87,7.82-11.51,13.93c-2.64,6.11-3.96,13.51-3.96,22.21c0,12.9,2.93,22.97,8.8,30.2
		C822.55,461.02,830.8,464.63,841.46,464.63z"/>
	<path class="st0" d="M954.48,476.65c-9.77,0-18.23-2.17-25.36-6.52c-7.13-4.35-12.68-10.5-16.64-18.47
		c-3.96-7.96-5.94-17.32-5.94-28.07c0-8.11,1.12-15.42,3.37-21.92c2.25-6.5,5.45-12.07,9.6-16.71c4.15-4.64,9.19-8.18,15.1-10.63
		c5.91-2.44,12.53-3.67,19.86-3.67c9.77,0,18.23,2.15,25.36,6.45c7.13,4.3,12.65,10.41,16.56,18.32c3.91,7.92,5.86,17.25,5.86,28
		c0,8.11-1.12,15.44-3.37,21.99c-2.25,6.55-5.45,12.17-9.6,16.86c-4.16,4.69-9.16,8.26-15.03,10.7
		C968.4,475.43,961.81,476.65,954.48,476.65z M954.48,464.63c7.04,0,13.05-1.61,18.03-4.84c4.98-3.23,8.82-7.92,11.51-14.07
		c2.69-6.16,4.03-13.53,4.03-22.14c0-13-2.91-23.06-8.72-30.2c-5.82-7.13-14.1-10.7-24.85-10.7c-7.04,0-13.07,1.59-18.1,4.76
		c-5.03,3.18-8.87,7.82-11.51,13.93c-2.64,6.11-3.96,13.51-3.96,22.21c0,12.9,2.93,22.97,8.8,30.2
		C935.57,461.02,943.83,464.63,954.48,464.63z"/>
	<path class="st0" d="M1030.12,476.36c-2.15,0-3.81-0.61-4.98-1.83s-1.76-2.95-1.76-5.2v-90.45c0-2.25,0.61-3.96,1.83-5.13
		c1.22-1.17,2.91-1.76,5.06-1.76h34.89c11.14,0,19.72,2.62,25.73,7.84c6.01,5.23,9.01,12.63,9.01,22.21c0,6.26-1.37,11.61-4.1,16.05
		c-2.74,4.45-6.69,7.84-11.87,10.19c-5.18,2.35-11.43,3.52-18.76,3.52l1.47-2.05h3.22c3.91,0,7.3,0.98,10.19,2.93
		c2.88,1.96,5.45,5.08,7.7,9.38l13.49,24.77c0.88,1.56,1.27,3.08,1.17,4.54c-0.1,1.47-0.64,2.66-1.61,3.59
		c-0.98,0.93-2.4,1.39-4.25,1.39c-1.96,0-3.52-0.42-4.69-1.25c-1.17-0.83-2.2-2.08-3.08-3.74l-15.83-29.02
		c-2.15-4.1-4.59-6.82-7.33-8.14c-2.74-1.32-6.4-1.98-10.99-1.98h-17.59v37.09c0,2.25-0.56,3.98-1.69,5.2
		C1034.2,475.75,1032.46,476.36,1030.12,476.36z M1037.01,421.68h25.95c7.82,0,13.68-1.64,17.59-4.91
		c3.91-3.27,5.86-8.09,5.86-14.44c0-6.35-1.96-11.14-5.86-14.37c-3.91-3.23-9.77-4.84-17.59-4.84h-25.95V421.68z"/>
	<path class="st0" d="M1118.81,476.36c-1.76,0-3.15-0.39-4.18-1.17c-1.03-0.78-1.64-1.86-1.83-3.23c-0.2-1.37,0.1-2.88,0.88-4.54
		l40.02-90.59c0.88-2.05,2-3.54,3.37-4.47c1.37-0.93,2.88-1.39,4.54-1.39c1.66,0,3.15,0.46,4.47,1.39c1.32,0.93,2.47,2.42,3.45,4.47
		l40.02,90.59c0.78,1.66,1.1,3.2,0.95,4.62c-0.15,1.42-0.71,2.49-1.69,3.23c-0.98,0.73-2.35,1.1-4.1,1.1
		c-1.96,0-3.52-0.51-4.69-1.54c-1.17-1.03-2.2-2.51-3.08-4.47l-10.41-24.33l6.3,3.52h-62.74l6.3-3.52l-10.41,24.33
		c-0.88,2.15-1.86,3.69-2.93,4.62C1121.98,475.9,1120.56,476.36,1118.81,476.36z M1161.32,387.38l-22.87,54.09l-3.52-3.08H1188
		l-3.37,3.08l-23.01-54.09H1161.32z"/>
	<path class="st0" d="M1249.71,476.36c-2.15,0-3.81-0.61-4.98-1.83s-1.76-3.01-1.76-5.35v-47.35l2.93,9.09l-36.35-50.43
		c-0.98-1.37-1.44-2.81-1.39-4.32c0.05-1.51,0.61-2.76,1.69-3.74c1.07-0.98,2.54-1.47,4.4-1.47c1.47,0,2.79,0.34,3.96,1.03
		c1.17,0.69,2.29,1.81,3.37,3.37l30.2,41.63h-3.37l30.2-41.63c1.07-1.66,2.15-2.81,3.23-3.44c1.07-0.63,2.44-0.95,4.1-0.95
		c1.76,0,3.15,0.46,4.18,1.39c1.03,0.93,1.56,2.13,1.61,3.59c0.05,1.47-0.51,2.98-1.69,4.54l-36.35,50.43l2.93-9.09v47.35
		C1256.6,473.97,1254.3,476.36,1249.71,476.36z"/>
</g>
<g>
</g>
<g>
</g>
<g>
</g>
<g>
</g>
<g>
</g>
<g>
</g>
<g>
</g>
<g>
</g>
<g>
</g>
<g>
</g>
<g>
</g>
<g>
</g>
<g>
</g>
<g>
</g>
<g>
</g>
</svg>
