<?xml version="1.0" encoding="utf-8"?>
<!-- Generator: Adobe Illustrator 28.0.0, SVG Export Plug-In . SVG Version: 6.00 Build 0)  -->
<svg version="1.0" id="Layer_1" xmlns="http://www.w3.org/2000/svg" xmlns:xlink="http://www.w3.org/1999/xlink" x="0px" y="0px"
	 viewBox="0 0 1920 1080" style="enable-background:new 0 0 1920 1080;" xml:space="preserve">
<style type="text/css">
	.st0{fill:#404F94;}
</style>
<g>
	<path class="st0" d="M797.33,476.36c-2.15,0-3.81-0.61-4.98-1.83s-1.76-2.95-1.76-5.2v-91.47c0-2.25,0.59-3.96,1.76-5.13
		c1.17-1.17,2.83-1.76,4.98-1.76c2.25,0,3.96,0.59,5.13,1.76c1.17,1.17,1.76,2.88,1.76,5.13v40.9h0.29l46.32-44.12
		c1.37-1.27,2.66-2.2,3.88-2.79c1.22-0.59,2.57-0.88,4.03-0.88c2.05,0,3.54,0.51,4.47,1.54c0.93,1.03,1.29,2.25,1.1,3.66
		c-0.2,1.42-0.93,2.76-2.2,4.03l-48.38,45.44l0.15-6.89l50.57,47.5c1.56,1.47,2.39,3.01,2.49,4.62c0.1,1.61-0.37,2.93-1.39,3.96
		c-1.03,1.03-2.57,1.54-4.62,1.54c-1.66,0-3.06-0.34-4.18-1.03c-1.12-0.68-2.42-1.76-3.88-3.23l-48.38-45.3h-0.29v42.51
		c0,2.25-0.56,3.98-1.69,5.2C801.41,475.75,799.68,476.36,797.33,476.36z"/>
	<path class="st0" d="M890.86,475.34c-2.35,0-4.15-0.63-5.42-1.91c-1.27-1.27-1.91-3.08-1.91-5.42v-88.69
		c0-2.35,0.63-4.15,1.91-5.42c1.27-1.27,3.08-1.91,5.42-1.91h53.95c1.85,0,3.3,0.47,4.32,1.39c1.03,0.93,1.54,2.27,1.54,4.03
		c0,1.86-0.51,3.28-1.54,4.25c-1.03,0.98-2.47,1.47-4.32,1.47h-48.08v34.16h45c1.86,0,3.27,0.49,4.25,1.47
		c0.98,0.98,1.47,2.35,1.47,4.1c0,1.86-0.49,3.25-1.47,4.18c-0.98,0.93-2.4,1.39-4.25,1.39h-45v35.77h48.08
		c1.85,0,3.3,0.47,4.32,1.39c1.03,0.93,1.54,2.32,1.54,4.18c0,1.86-0.51,3.25-1.54,4.18c-1.03,0.93-2.47,1.39-4.32,1.39H890.86z"/>
	<path class="st0" d="M1007.1,476.36c-2.05,0-3.71-0.47-4.98-1.39c-1.27-0.93-2.34-2.37-3.22-4.32l-39.73-90.74
		c-0.78-1.86-1-3.44-0.66-4.76c0.34-1.32,1.07-2.35,2.2-3.08c1.12-0.73,2.47-1.1,4.03-1.1c2.05,0,3.59,0.44,4.62,1.32
		c1.03,0.88,1.93,2.2,2.71,3.96l37.82,87.81h-5.13l37.67-87.81c0.78-1.76,1.71-3.08,2.79-3.96c1.07-0.88,2.59-1.32,4.54-1.32
		c1.56,0,2.86,0.39,3.88,1.17c1.03,0.78,1.66,1.83,1.91,3.15c0.24,1.32,0.02,2.86-0.66,4.62l-39.87,90.74
		c-0.78,1.96-1.78,3.4-3,4.32C1010.79,475.9,1009.16,476.36,1007.1,476.36z"/>
	<path class="st0" d="M1077.03,476.36c-2.15,0-3.81-0.61-4.98-1.83s-1.76-2.95-1.76-5.2V378c0-2.35,0.59-4.1,1.76-5.28
		c1.17-1.17,2.83-1.76,4.98-1.76c2.25,0,3.96,0.59,5.13,1.76c1.17,1.17,1.76,2.93,1.76,5.28v91.33c0,2.25-0.56,3.98-1.69,5.2
		C1081.11,475.75,1079.37,476.36,1077.03,476.36z"/>
	<path class="st0" d="M1114.99,476.36c-1.96,0-3.5-0.59-4.62-1.76c-1.12-1.17-1.69-2.79-1.69-4.84v-91.91
		c0-2.25,0.54-3.96,1.61-5.13c1.07-1.17,2.49-1.76,4.25-1.76c1.66,0,2.93,0.29,3.81,0.88c0.88,0.59,1.86,1.61,2.93,3.08l62.15,82.38
		h-3.67v-79.75c0-2.15,0.56-3.79,1.69-4.91c1.12-1.12,2.71-1.69,4.76-1.69c2.05,0,3.61,0.56,4.69,1.69
		c1.07,1.12,1.61,2.76,1.61,4.91v92.21c0,2.05-0.51,3.66-1.54,4.84c-1.03,1.17-2.37,1.76-4.03,1.76c-1.56,0-2.86-0.32-3.88-0.95
		s-2.08-1.69-3.15-3.15l-62.01-82.38h3.37v79.89c0,2.05-0.54,3.66-1.61,4.84C1118.61,475.78,1117.04,476.36,1114.99,476.36z"/>
</g>
<g>
</g>
<g>
</g>
<g>
</g>
<g>
</g>
<g>
</g>
<g>
</g>
<g>
</g>
<g>
</g>
<g>
</g>
<g>
</g>
<g>
</g>
<g>
</g>
<g>
</g>
<g>
</g>
<g>
</g>
</svg>
