<?xml version="1.0" encoding="utf-8"?>
<!-- Generator: Adobe Illustrator 28.0.0, SVG Export Plug-In . SVG Version: 6.00 Build 0)  -->
<svg version="1.0" id="Layer_1" xmlns="http://www.w3.org/2000/svg" xmlns:xlink="http://www.w3.org/1999/xlink" x="0px" y="0px"
	 viewBox="0 0 800 800" style="enable-background:new 0 0 800 800;" xml:space="preserve">
<style type="text/css">
	.st0{fill:#31A8FF;}
</style>
<path class="st0" d="M200,562.9V255.08c0-2.09,0.88-3.29,2.92-3.29c30.14,0,60.27-1.8,90.42-1.8c48.92,0,101.89,16.73,120.46,67.9
	c4.37,12.57,6.71,25.43,6.71,38.89c0,25.73-5.83,46.96-17.5,63.72c-32.59,46.8-89.08,46.07-139.71,46.07v96.03
	c0.39,2.84-2.03,4.19-4.38,4.19H203.5C201.17,566.8,200,565.6,200,562.9z M263.58,309.53v100.51c20.08,1.47,41.09,1.63,60.38-4.78
	c21.3-6.14,32.96-24.58,32.96-46.67c0.59-18.82-9.67-36.88-27.12-43.68C310.74,306.99,284.15,306.52,263.58,309.53z"/>
<path class="st0" d="M602.42,390.18c-8.83-4.65-18.23-8.05-27.94-10.11c-12.48-2.94-61.73-13.23-61.75,12.52
	c0.44,14.38,23.26,21.42,33.34,25.53c35.4,12.15,75.45,33.88,74.67,77.54c1.08,54.36-51.59,76.09-96.74,76.1
	c-23.5,0.24-47.99-3.4-69.5-13.49c-2.05-1.09-3.37-3.41-3.29-5.78v-52.02c-0.23-2.08,2.01-3.91,3.76-2.41
	c21.08,12.74,46.05,18.93,70.44,19.26c10.76,0,32.09-1.04,31.93-16.86c0-15.17-25.52-22.15-35.69-26.01
	c-14.75-5.26-28.73-12.56-41.56-21.67c-17.93-12.79-29.18-33.3-28.88-55.87c-0.11-51.18,48.38-74.16,92.04-74.17
	c20.41-0.17,42.33,1.34,61.33,9.63c2.73,0.8,3.3,3.68,3.29,6.26v48.65C608.04,390.32,604.69,391.34,602.42,390.18z"/>
</svg>
