<?xml version="1.0" encoding="UTF-8"?>
<svg id="Layer_1" data-name="Layer 1" xmlns="http://www.w3.org/2000/svg" viewBox="0 0 149.05 100.12">
  <path d="m41.05,68.56c-4.15-20.41-1.39-42.31,13.53-57.54,14.87-15.18,35.97-14.53,50.41,1.04,8.08,8.71,12.32,19.25,14.31,31.33,7.21-3.2,13.63-6.89,18.34-12.94,5.04-6.47,3.4-11.89-4.14-15.45-5.61-2.65-11.46-3.44-23.46-4.44l-2-2c8,0,21.58-.22,30.65,4.27,8.05,3.99,10.11,11.78,4.93,19.3-8.57,12.43,4.43,20.43,5.43,21.43-6.09.13-13.31-2.24-18-5.84-2.15-1.65-3.72-1.92-6.19-.58-24.61,13.32-51.18,19.46-78.91,21.25-1.37.09-3.9.17-4.9.17Zm46.82,30.39c16.37-4.53,31.68-25.69,29.99-41.79-23.36,10.42-47.87,15.98-73.65,17.82,8.85,19.02,26.82,28.62,43.66,23.97ZM36.6,21.78m5.44-5.22c-11,3-29,12-37,23-2.01,2.77-3.63,5.86-4.53,9.16-1.32,4.83-.1,9.44,4,12.59,8.95,6.88,19.49,7.06,30.42,7.26-.75-3.46-1.35-6.2-1.92-8.84-3.97-.18-8.52-.76-12.55-1.63-10.27-2.22-13.58-9.72-7.99-18.68,2.15-3.45,5.23-6.58,8.46-9.01,5.12-3.86,13.12-8.86,19.12-10.86l2-3Zm12.22,11.29c-2.73,8.85-1.21,17.17,3.39,18.59s10.54-4.61,13.26-13.45c2.73-8.85,1.21-17.17-3.39-18.59s-10.54,4.61-13.26,13.45Z" style="stroke-width: 0px;"/>
</svg>