<?xml version="1.0" encoding="UTF-8"?>
<svg id="Layer_1" data-name="Layer 1" xmlns="http://www.w3.org/2000/svg" viewBox="0 0 950.92 138.16">
  <path d="m95.22,134.78H8.13c-4.49,0-8.13-3.64-8.13-8.13V8.13C0,3.64,3.64,0,8.13,0h82.67c4.49,0,8.13,3.64,8.13,8.13v3.85c0,4.49-3.64,8.13-8.13,8.13H24.36c-4.49,0-8.13,3.64-8.13,8.13v18.36c0,4.49,3.64,8.13,8.13,8.13h41.22c4.49,0,8.13,3.64,8.13,8.13v3.86c0,4.49-3.64,8.13-8.13,8.13H24.36c-4.49,0-8.13,3.64-8.13,8.13v23.58c0,4.49,3.64,8.13,8.13,8.13h70.2c4.49,0,8.13,3.64,8.13,8.13v4.44c.03,4.14-3.32,7.5-7.46,7.5Z" style="fill: #2847d6; stroke-width: 0px;"/>
  <path d="m126.56,135.1h0c-4.49,0-8.13-3.64-8.13-8.13V39.18c0-4.49,3.64-8.13,8.13-8.13h0c4.49,0,8.13,3.64,8.13,8.13v87.78c0,4.49-3.64,8.13-8.13,8.13Z" style="fill: #2847d6; stroke-width: 0px;"/>
  <path d="m364.07,82.81c0,17.02-5.82,30.89-17.5,41.63-9.93,9.14-22.36,13.72-37.28,13.72s-27.39-4.58-37.39-13.72c-11.64-10.62-17.5-24.49-17.5-41.63s5.86-30.66,17.62-41.27c10.29-9.34,22.72-14.04,37.28-14.04s26.83,4.7,37.16,14.04c11.75,10.73,17.61,24.49,17.61,41.27Zm-16.94-.08c0-10.74-3.55-19.6-10.61-26.52-7.06-6.96-16.14-10.42-27.31-10.42s-20.41,3.5-27.51,10.5c-7.1,7-10.65,15.82-10.65,26.44s3.47,20.04,10.45,26.88c6.98,6.84,16.18,10.26,27.7,10.26s20.57-3.42,27.51-10.26c6.95-6.84,10.42-15.78,10.42-26.88Z" style="fill: #2847d6; stroke-width: 0px;"/>
  <path d="m455.93,51.06c-2.43,3.19-6.79,4.04-10.34,2.19-9.16-4.77-18.96-7.14-29.38-7.14-18.53,0-27.78,4.14-27.78,12.36,0,4.85,3.47,8,10.45,9.46,9.49,1.04,18.97,2.1,28.46,3.22,13.64,1.7,23.36,4.74,29.14,9.14,6.42,4.85,9.61,12.24,9.61,22.14,0,11.18-3.99,19.8-12,25.88-8.01,6.08-19.57,9.14-34.76,9.14-18.47,0-33.76-4.53-45.83-13.61-3.28-2.47-4.02-7.12-1.88-10.62l.5-.81c2.41-3.93,7.57-5.04,11.43-2.51,10.11,6.61,21.95,9.94,35.54,9.94,9.41,0,16.66-1.52,21.8-4.5,5.14-2.98,7.74-6.96,7.74-11.92,0-5.52-3.19-9.42-9.49-11.68-3.51-1.24-8.97-2.06-16.38-2.54-11.56-.68-18.65-1.2-21.28-1.52-10.29-1.24-17.89-4.02-22.76-8.27-4.86-4.3-7.34-10.54-7.34-18.76,0-9.9,3.91-17.78,11.72-23.58,7.82-5.8,18.77-8.7,32.85-8.7,15.2,0,28.08,3.33,38.63,9.99,4.02,2.53,4.93,8.02,2.05,11.79l-.7.91Z" style="fill: #2847d6; stroke-width: 0px;"/>
  <path d="m616.52,135.1c-4.49,0-8.13-3.64-8.13-8.13V39.18c0-4.49,3.64-8.13,8.13-8.13h70.32c4.49,0,8.13,3.64,8.13,8.13v2.02c0,4.49-3.64,8.13-8.13,8.13h-54.09c-4.49,0-8.13,3.64-8.13,8.13v6.24c0,4.49,3.64,8.13,8.13,8.13h32.65c4.49,0,8.13,3.64,8.13,8.13v2.02c0,4.49-3.64,8.13-8.13,8.13h-32.65c-4.49,0-8.13,3.64-8.13,8.13v10.46c0,4.49,3.64,8.13,8.13,8.13h57.2c4.49,0,8.13,3.64,8.13,8.13v2.11c.03,4.42-3.55,8-7.96,8h-73.59Z" style="fill: #2847d6; stroke-width: 0px;"/>
  <path d="m754.45,31.09c14.62,0,26.39,4.82,35.24,14.4,8.85,9.58,13.28,21.86,13.28,36.86,0,13.64-4.67,26.72-13.96,39.24-2.63,3.62-6.78,6.72-12.48,9.3-6.22,2.82-12.68,4.22-19.37,4.22h-39.02c-4.49,0-8.13-3.64-8.13-8.13V39.18c0-4.49,3.64-8.13,8.13-8.13h36.31v.04h0Zm3.83,85.75c7.94,0,14.47-3.1,19.57-9.34,5.1-6.24,7.66-14.16,7.66-23.82,0-10.3-2.71-18.6-8.13-24.89-5.42-6.28-12.64-9.42-21.68-9.42h-21.29c-4.49,0-8.13,3.64-8.13,8.13v51.24c0,4.49,3.64,8.13,8.13,8.13h23.88v-.04h-.01Z" style="fill: #2847d6; stroke-width: 0px;"/>
  <path d="m196.28,31.09c14.62,0,26.39,4.82,35.24,14.4,8.85,9.58,13.28,21.86,13.28,36.86,0,13.64-4.67,26.72-13.96,39.24-2.63,3.62-6.78,6.72-12.48,9.3-6.22,2.82-12.68,4.22-19.37,4.22h-39.06c-4.49,0-8.13-3.64-8.13-8.13V39.18c0-4.49,3.64-8.13,8.13-8.13h36.35v.04Zm3.79,85.75c7.94,0,14.47-3.1,19.57-9.34,5.1-6.24,7.66-14.16,7.66-23.82,0-10.3-2.71-18.6-8.13-24.89-5.42-6.28-12.64-9.42-21.68-9.42h-21.29c-4.49,0-8.13,3.64-8.13,8.13v51.24c0,4.49,3.64,8.13,8.13,8.13h23.88v-.04h0Z" style="fill: #2847d6; stroke-width: 0px;"/>
  <path d="m824.33,135.1h0c-4.49,0-8.13-3.64-8.13-8.13V39.18c0-4.49,3.64-8.13,8.13-8.13h0c4.49,0,8.13,3.64,8.13,8.13v87.78c0,4.49-3.64,8.13-8.13,8.13Z" style="fill: #2847d6; stroke-width: 0px;"/>
  <path d="m942.78,135.1h-.12c-3.25,0-6.19-1.93-7.47-4.92l-5.38-12.5c-1.28-2.99-4.22-4.92-7.47-4.92h-45.3c-3.25,0-6.19,1.93-7.47,4.92l-5.38,12.5c-1.28,2.99-4.22,4.92-7.47,4.92h-.12c-5.86,0-9.8-6.01-7.45-11.38l38.31-87.78c1.29-2.96,4.22-4.88,7.45-4.88h9.56c3.23,0,6.16,1.92,7.45,4.88l38.3,87.78c2.34,5.37-1.59,11.38-7.45,11.38Zm-28.06-51.87l-7.53-17.5c-2.82-6.55-12.1-6.56-14.93-.02l-7.56,17.43c-2.33,5.37,1.61,11.37,7.46,11.37h15.13c5.8,0,9.71-5.95,7.42-11.28Z" style="fill: #2847d6; stroke-width: 0px;"/>
  <path d="m584.35,135.1c-4.49,0-8.13-3.64-8.13-8.13v-56.77c0-4.15-5.36-5.8-7.69-2.37l-24.95,40.27c-3.14,5.41-10.96,5.4-14.08-.02l-24.3-39.99c-2.3-3.45-7.69-1.82-7.68,2.34l.13,56.51c0,4.49-3.64,8.13-8.13,8.13h-1.56c-4.49,0-8.13-3.64-8.13-8.13V39.14c0-4.49,3.64-8.13,8.13-8.13h7.71c2.9,0,5.59,1.55,7.04,4.06l26.94,44.55c3.13,5.41,10.94,5.42,14.08.01l27.08-44.58c1.45-2.51,4.13-4.05,7.03-4.05h8.63c4.49,0,8.13,3.64,8.13,8.13v88.43c0,4.16-3.37,7.52-7.52,7.52h-2.72Z" style="fill: #2847d6; stroke-width: 0px;"/>
</svg>