<?xml version="1.0" encoding="utf-8"?>
<!-- Generator: Adobe Illustrator 28.0.0, SVG Export Plug-In . SVG Version: 6.00 Build 0)  -->
<svg version="1.0" id="Layer_1" xmlns="http://www.w3.org/2000/svg" xmlns:xlink="http://www.w3.org/1999/xlink" x="0px" y="0px"
	 viewBox="0 0 1920 1080" style="enable-background:new 0 0 1920 1080;" xml:space="preserve">
<style type="text/css">
	.st0{fill:#404F94;}
</style>
<g>
	<path class="st0" d="M769.12,476.65c-10.26,0-19.06-2.15-26.39-6.45c-7.33-4.3-12.97-10.43-16.93-18.4
		c-3.96-7.96-5.94-17.37-5.94-28.22c0-8.11,1.12-15.42,3.37-21.92c2.25-6.5,5.47-12.07,9.67-16.71c4.2-4.64,9.36-8.18,15.47-10.63
		c6.11-2.44,13.02-3.67,20.74-3.67c5.86,0,11.51,0.83,16.93,2.49c5.42,1.66,10.09,4.01,14,7.04c1.56,1.08,2.59,2.3,3.08,3.67
		c0.49,1.37,0.56,2.66,0.22,3.88c-0.34,1.22-0.98,2.25-1.91,3.08c-0.93,0.83-2.08,1.27-3.44,1.32c-1.37,0.05-2.84-0.46-4.4-1.54
		c-3.42-2.64-7.16-4.57-11.21-5.79c-4.06-1.22-8.38-1.83-12.97-1.83c-7.53,0-13.9,1.59-19.13,4.76c-5.23,3.18-9.19,7.77-11.87,13.78
		c-2.69,6.01-4.03,13.37-4.03,22.06c0,8.6,1.34,15.96,4.03,22.06c2.69,6.11,6.65,10.75,11.87,13.93c5.23,3.18,11.6,4.76,19.13,4.76
		c4.59,0,8.96-0.63,13.12-1.91c4.15-1.27,7.99-3.23,11.51-5.86c1.56-1.07,3.01-1.56,4.32-1.47c1.32,0.1,2.42,0.51,3.3,1.25
		c0.88,0.73,1.49,1.71,1.83,2.93c0.34,1.22,0.32,2.47-0.07,3.74c-0.39,1.27-1.27,2.4-2.64,3.37c-4.01,3.42-8.77,5.99-14.29,7.7
		C780.96,475.8,775.17,476.65,769.12,476.65z"/>
	<path class="st0" d="M863.52,476.65c-9.77,0-18.23-2.17-25.36-6.52c-7.13-4.35-12.68-10.5-16.64-18.47
		c-3.96-7.96-5.94-17.32-5.94-28.07c0-8.11,1.12-15.42,3.37-21.92c2.25-6.5,5.45-12.07,9.6-16.71c4.15-4.64,9.19-8.18,15.1-10.63
		c5.91-2.44,12.53-3.67,19.86-3.67c9.77,0,18.23,2.15,25.36,6.45c7.13,4.3,12.65,10.41,16.56,18.32c3.91,7.92,5.86,17.25,5.86,28
		c0,8.11-1.12,15.44-3.37,21.99c-2.25,6.55-5.45,12.17-9.6,16.86c-4.15,4.69-9.16,8.26-15.03,10.7
		C877.45,475.43,870.85,476.65,863.52,476.65z M863.52,464.63c7.04,0,13.05-1.61,18.03-4.84s8.82-7.92,11.51-14.07
		c2.69-6.16,4.03-13.53,4.03-22.14c0-13-2.91-23.06-8.72-30.2c-5.82-7.13-14.1-10.7-24.85-10.7c-7.04,0-13.07,1.59-18.1,4.76
		c-5.03,3.18-8.87,7.82-11.51,13.93c-2.64,6.11-3.96,13.51-3.96,22.21c0,12.9,2.93,22.97,8.8,30.2
		C844.61,461.02,852.87,464.63,863.52,464.63z"/>
	<path class="st0" d="M938.87,476.36c-1.96,0-3.47-0.59-4.54-1.76c-1.08-1.17-1.61-2.73-1.61-4.69v-92.5c0-2.05,0.56-3.64,1.69-4.76
		c1.12-1.12,2.66-1.69,4.62-1.69c1.76,0,3.15,0.34,4.18,1.03c1.03,0.69,1.98,1.86,2.86,3.52l39.29,73.73h-4.54l39.29-73.73
		c0.88-1.66,1.81-2.83,2.79-3.52c0.98-0.68,2.35-1.03,4.1-1.03c1.95,0,3.47,0.56,4.54,1.69c1.07,1.12,1.61,2.71,1.61,4.76v92.5
		c0,1.96-0.51,3.52-1.54,4.69s-2.57,1.76-4.62,1.76c-2.05,0-3.59-0.59-4.62-1.76s-1.54-2.73-1.54-4.69V390.9h3.22l-35.18,65.82
		c-0.78,1.27-1.59,2.22-2.42,2.86c-0.83,0.64-1.98,0.95-3.44,0.95c-1.37,0-2.52-0.34-3.45-1.03c-0.93-0.68-1.74-1.61-2.42-2.79
		l-35.62-65.97h3.52v79.16c0,1.96-0.51,3.52-1.54,4.69S940.92,476.36,938.87,476.36z"/>
	<path class="st0" d="M1064.93,476.36c-2.15,0-3.81-0.61-4.98-1.83s-1.76-2.95-1.76-5.2V378c0-2.35,0.59-4.1,1.76-5.28
		c1.17-1.17,2.83-1.76,4.98-1.76c2.25,0,3.96,0.59,5.13,1.76c1.17,1.17,1.76,2.93,1.76,5.28v91.33c0,2.25-0.56,3.98-1.69,5.2
		C1069.01,475.75,1067.28,476.36,1064.93,476.36z"/>
	<path class="st0" d="M1142.04,476.65c-10.26,0-19.06-2.15-26.39-6.45c-7.33-4.3-12.97-10.43-16.93-18.4
		c-3.96-7.96-5.94-17.37-5.94-28.22c0-8.11,1.12-15.42,3.37-21.92c2.25-6.5,5.47-12.07,9.67-16.71c4.2-4.64,9.36-8.18,15.47-10.63
		c6.11-2.44,13.02-3.67,20.74-3.67c5.86,0,11.51,0.83,16.93,2.49c5.42,1.66,10.09,4.01,14,7.04c1.56,1.08,2.59,2.3,3.08,3.67
		c0.49,1.37,0.56,2.66,0.22,3.88c-0.34,1.22-0.98,2.25-1.91,3.08c-0.93,0.83-2.08,1.27-3.44,1.32c-1.37,0.05-2.84-0.46-4.4-1.54
		c-3.42-2.64-7.16-4.57-11.21-5.79c-4.06-1.22-8.38-1.83-12.97-1.83c-7.53,0-13.9,1.59-19.13,4.76c-5.23,3.18-9.19,7.77-11.87,13.78
		c-2.69,6.01-4.03,13.37-4.03,22.06c0,8.6,1.34,15.96,4.03,22.06c2.69,6.11,6.65,10.75,11.87,13.93c5.23,3.18,11.6,4.76,19.13,4.76
		c4.59,0,8.96-0.63,13.12-1.91c4.15-1.27,7.99-3.23,11.51-5.86c1.56-1.07,3-1.56,4.32-1.47c1.32,0.1,2.42,0.51,3.3,1.25
		c0.88,0.73,1.49,1.71,1.83,2.93c0.34,1.22,0.32,2.47-0.07,3.74c-0.39,1.27-1.27,2.4-2.64,3.37c-4.01,3.42-8.77,5.99-14.29,7.7
		C1153.89,475.8,1148.1,476.65,1142.04,476.65z"/>
	<path class="st0" d="M1227.5,476.65c-4.59,0-9.04-0.37-13.34-1.1c-4.3-0.73-8.36-1.83-12.17-3.3c-3.81-1.47-7.23-3.27-10.26-5.42
		c-1.27-0.88-2.18-1.95-2.71-3.22c-0.54-1.27-0.69-2.52-0.44-3.74c0.24-1.22,0.78-2.27,1.61-3.15c0.83-0.88,1.83-1.42,3.01-1.61
		c1.17-0.19,2.44,0.2,3.81,1.17c4.49,3.03,9.21,5.23,14.15,6.6c4.93,1.37,10.38,2.05,16.34,2.05c8.6,0,14.93-1.56,18.98-4.69
		c4.05-3.13,6.08-7.23,6.08-12.31c0-4.2-1.47-7.5-4.4-9.89c-2.93-2.39-7.87-4.27-14.81-5.64l-15.54-3.23
		c-9.19-1.95-16.05-5.18-20.6-9.67c-4.54-4.49-6.82-10.5-6.82-18.03c0-4.59,0.93-8.77,2.79-12.53c1.86-3.76,4.49-7.01,7.92-9.75
		c3.42-2.73,7.45-4.84,12.09-6.3c4.64-1.47,9.8-2.2,15.46-2.2c6.06,0,11.75,0.83,17.08,2.49c5.33,1.66,10.14,4.1,14.44,7.33
		c1.17,0.88,1.95,1.93,2.34,3.15c0.39,1.22,0.46,2.42,0.22,3.59c-0.25,1.17-0.78,2.15-1.61,2.93c-0.83,0.78-1.86,1.22-3.08,1.32
		c-1.22,0.1-2.57-0.34-4.03-1.32c-3.91-2.73-7.92-4.71-12.02-5.94c-4.1-1.22-8.6-1.83-13.49-1.83c-4.98,0-9.31,0.78-12.97,2.35
		c-3.66,1.56-6.5,3.74-8.5,6.52c-2,2.79-3,6.04-3,9.75c0,4.5,1.37,8.01,4.1,10.55c2.73,2.54,7.33,4.5,13.78,5.86l15.39,3.08
		c9.77,2.05,17.03,5.2,21.77,9.46c4.74,4.25,7.11,9.94,7.11,17.08c0,4.5-0.9,8.55-2.71,12.17c-1.81,3.62-4.38,6.72-7.7,9.31
		c-3.32,2.59-7.38,4.59-12.17,6.01C1238.84,475.94,1233.46,476.65,1227.5,476.65z"/>
</g>
<g>
</g>
<g>
</g>
<g>
</g>
<g>
</g>
<g>
</g>
<g>
</g>
<g>
</g>
<g>
</g>
<g>
</g>
<g>
</g>
<g>
</g>
<g>
</g>
<g>
</g>
<g>
</g>
<g>
</g>
</svg>
