<?xml version="1.0" encoding="utf-8"?>
<!-- Generator: Adobe Illustrator 28.0.0, SVG Export Plug-In . SVG Version: 6.00 Build 0)  -->
<svg version="1.0" id="Layer_1" xmlns="http://www.w3.org/2000/svg" xmlns:xlink="http://www.w3.org/1999/xlink" x="0px" y="0px"
	 viewBox="0 0 800 800" style="enable-background:new 0 0 800 800;" xml:space="preserve">
<style type="text/css">
	.st0{fill:#FF9A00;}
</style>
<path class="st0" d="M389.21,489.91H280.74l-22.07,70.32c-0.61,2.61-3.02,4.46-5.63,4.33H198.1c-3.13,0-4.23-1.77-3.29-5.3
	l93.92-277.42c0.94-2.89,1.88-6.18,2.82-9.87c1.23-6.43,1.86-12.96,1.88-19.51c-0.27-1.93,1.43-3.64,3.29-3.37h74.66
	c2.19,0,3.44,0.8,3.76,2.41l106.6,308.24c0.94,3.21,0,4.82-2.82,4.82h-61.05c-2.14,0.24-4.18-1.22-4.69-3.37L389.21,489.91z
	 M297.65,429.22h74.2c-12.19-41.65-25.95-82.76-37.1-124.74C322.71,346.53,309.59,388.41,297.65,429.22z"/>
<path class="st0" d="M545.11,300.15c-4.79,0.2-9.57-0.65-14.02-2.47c-4.45-1.83-8.47-4.6-11.81-8.12c-3.33-3.68-5.91-8.01-7.6-12.72
	c-1.69-4.71-2.46-9.72-2.26-14.74c-0.17-4.97,0.68-9.91,2.5-14.52c1.82-4.61,4.57-8.77,8.07-12.21c3.46-3.41,7.55-6.08,12.02-7.85
	c4.47-1.78,9.24-2.63,14.04-2.5c11.27,0,20.12,3.45,26.53,10.35c3.24,3.59,5.76,7.79,7.41,12.38c1.65,4.59,2.41,9.46,2.22,14.35
	c0.2,5.04-0.6,10.06-2.33,14.78c-1.73,4.71-4.38,9.02-7.77,12.67c-3.54,3.58-7.77,6.37-12.42,8.2
	C555.05,299.57,550.08,300.39,545.11,300.15z M512.71,559.74V329.52c0-2.89,1.25-4.33,3.76-4.33h57.76c2.5,0,3.75,1.45,3.76,4.33
	v230.21c0,3.22-1.25,4.82-3.76,4.82h-57.29C514.12,564.56,512.71,562.95,512.71,559.74z"/>
</svg>
