<?xml version="1.0" encoding="utf-8"?>
<!-- Generator: Adobe Illustrator 28.0.0, SVG Export Plug-In . SVG Version: 6.00 Build 0)  -->
<svg version="1.0" id="Layer_1" xmlns="http://www.w3.org/2000/svg" xmlns:xlink="http://www.w3.org/1999/xlink" x="0px" y="0px"
	 viewBox="0 0 800 800" style="enable-background:new 0 0 800 800;" xml:space="preserve">
<style type="text/css">
	.st0{fill:#9999FF;}
</style>
<path class="st0" d="M200,544.89V230.2c0-2.14,0.88-3.36,2.93-3.36c30.23,0,60.45-1.83,90.69-1.83c49.06,0,102.19,17.1,120.82,69.42
	c4.39,12.84,6.73,25.99,6.73,39.76c0,26.3-5.85,48.01-17.55,65.14c-32.68,47.84-89.34,47.1-140.12,47.1v98.17
	c0.4,2.91-2.03,4.28-4.39,4.28h-55.58C201.17,548.87,200,547.65,200,544.89z M263.77,285.86v102.76
	c20.14,1.51,41.21,1.67,60.55-4.89c21.36-6.28,33.06-25.12,33.06-47.71c0.6-19.24-9.69-37.71-27.2-44.65
	C311.07,283.26,284.41,282.78,263.77,285.86z"/>
<path class="st0" d="M460.81,305.3h51.34c2.83,0.03,5.37,2.07,6.12,4.93c3.76,8.73,4.23,19.26,4.24,28.69
	c8.8-10.72,19.42-19.64,31.32-26.34c12.76-7.55,27.23-11.38,41.89-11.08c2.43-0.36,4.59,1.89,4.24,4.43v59.58
	c0,2.3-1.58,3.45-4.71,3.45c-21.73-1.57-55.56,3.8-71.35,21.67v154.91c0,2.96-1.26,4.43-3.77,4.43h-55.08
	c-2.71,0.4-5.09-2.14-4.71-4.93v-168.2c0-22.54,0.47-45.76-2.83-68.08C457.01,306.69,458.89,304.78,460.81,305.3z"/>
</svg>
