<?xml version="1.0" encoding="utf-8"?>
<!-- Generator: Adobe Illustrator 28.0.0, SVG Export Plug-In . SVG Version: 6.00 Build 0)  -->
<svg version="1.0" id="Layer_1" xmlns="http://www.w3.org/2000/svg" xmlns:xlink="http://www.w3.org/1999/xlink" x="0px" y="0px"
	 viewBox="0 0 1920 1080" style="enable-background:new 0 0 1920 1080;" xml:space="preserve">
<style type="text/css">
	.st0{fill:#404F94;}
</style>
<g>
	<path class="st0" d="M392.6,476.65c-6.84,0-12.88-0.9-18.1-2.71c-5.23-1.81-9.6-4.49-13.12-8.06c-3.52-3.57-6.18-8.01-7.99-13.34
		c-1.81-5.33-2.71-11.51-2.71-18.54v-56.14c0-2.35,0.59-4.08,1.76-5.2c1.17-1.12,2.83-1.69,4.98-1.69c2.25,0,3.96,0.56,5.13,1.69
		c1.17,1.12,1.76,2.86,1.76,5.2v55.7c0,10.46,2.39,18.25,7.18,23.38c4.79,5.13,11.82,7.7,21.11,7.7c9.28,0,16.32-2.57,21.11-7.7
		c4.79-5.13,7.18-12.92,7.18-23.38v-55.7c0-2.35,0.59-4.08,1.76-5.2c1.17-1.12,2.83-1.69,4.98-1.69c2.15,0,3.81,0.56,4.98,1.69
		c1.17,1.12,1.76,2.86,1.76,5.2V434c0,9.29-1.59,17.1-4.76,23.45c-3.18,6.35-7.87,11.14-14.07,14.37
		C409.34,475.04,401.69,476.65,392.6,476.65z"/>
	<path class="st0" d="M490.67,476.36c-2.25,0-3.96-0.61-5.13-1.83c-1.17-1.22-1.76-2.95-1.76-5.2v-85.76h-32.1
		c-1.86,0-3.32-0.51-4.4-1.54c-1.08-1.03-1.61-2.47-1.61-4.32c0-1.86,0.54-3.27,1.61-4.25c1.07-0.98,2.54-1.47,4.4-1.47h77.84
		c1.95,0,3.44,0.49,4.47,1.47c1.03,0.98,1.54,2.4,1.54,4.25c0,1.86-0.51,3.3-1.54,4.32c-1.03,1.03-2.52,1.54-4.47,1.54h-32.1v85.76
		c0,2.25-0.56,3.98-1.69,5.2C494.6,475.75,492.92,476.36,490.67,476.36z"/>
	<path class="st0" d="M554.44,475.34c-2.15,0-3.84-0.63-5.06-1.91c-1.22-1.27-1.83-2.98-1.83-5.13v-90.01
		c0-2.25,0.59-3.96,1.76-5.13s2.83-1.76,4.98-1.76c2.25,0,3.96,0.59,5.13,1.76s1.76,2.88,1.76,5.13v85.32h46.62
		c2.05,0,3.59,0.49,4.62,1.47c1.03,0.98,1.54,2.4,1.54,4.25c0,1.96-0.51,3.44-1.54,4.47c-1.03,1.03-2.57,1.54-4.62,1.54H554.44z"/>
	<path class="st0" d="M672.88,476.36c-2.15,0-3.81-0.61-4.98-1.83s-1.76-2.95-1.76-5.2V378c0-2.35,0.59-4.1,1.76-5.28
		c1.17-1.17,2.83-1.76,4.98-1.76c2.25,0,3.96,0.59,5.13,1.76c1.17,1.17,1.76,2.93,1.76,5.28v91.33c0,2.25-0.56,3.98-1.69,5.2
		C676.96,475.75,675.22,476.36,672.88,476.36z"/>
	<path class="st0" d="M710.85,476.36c-1.96,0-3.5-0.59-4.62-1.76c-1.12-1.17-1.69-2.79-1.69-4.84v-91.91c0-2.25,0.54-3.96,1.61-5.13
		c1.07-1.17,2.49-1.76,4.25-1.76c1.66,0,2.93,0.29,3.81,0.88s1.86,1.61,2.93,3.08l62.15,82.38h-3.67v-79.75
		c0-2.15,0.56-3.79,1.69-4.91c1.12-1.12,2.71-1.69,4.76-1.69s3.61,0.56,4.69,1.69c1.07,1.12,1.61,2.76,1.61,4.91v92.21
		c0,2.05-0.51,3.66-1.54,4.84c-1.03,1.17-2.37,1.76-4.03,1.76c-1.56,0-2.86-0.32-3.88-0.95c-1.03-0.63-2.08-1.69-3.15-3.15
		l-62.01-82.38h3.37v79.89c0,2.05-0.54,3.66-1.61,4.84C714.46,475.78,712.9,476.36,710.85,476.36z"/>
	<path class="st0" d="M820.35,476.36c-2.25,0-4.01-0.64-5.28-1.91c-1.27-1.27-1.91-3.08-1.91-5.42v-89.71
		c0-2.35,0.63-4.15,1.91-5.42c1.27-1.27,3.08-1.91,5.42-1.91h52.63c1.95,0,3.42,0.47,4.4,1.39c0.98,0.93,1.47,2.27,1.47,4.03
		c0,1.86-0.49,3.28-1.47,4.25c-0.98,0.98-2.44,1.47-4.4,1.47H826.8v34.6h43.39c1.86,0,3.27,0.49,4.25,1.47
		c0.98,0.98,1.47,2.3,1.47,3.96c0,1.86-0.49,3.28-1.47,4.25c-0.98,0.98-2.4,1.47-4.25,1.47H826.8v40.17
		C826.8,473.92,824.65,476.36,820.35,476.36z"/>
	<path class="st0" d="M935.72,476.65c-9.77,0-18.23-2.17-25.36-6.52c-7.13-4.35-12.68-10.5-16.64-18.47
		c-3.96-7.96-5.94-17.32-5.94-28.07c0-8.11,1.12-15.42,3.37-21.92c2.25-6.5,5.45-12.07,9.6-16.71c4.15-4.64,9.19-8.18,15.1-10.63
		c5.91-2.44,12.53-3.67,19.86-3.67c9.77,0,18.23,2.15,25.36,6.45c7.13,4.3,12.66,10.41,16.57,18.32c3.91,7.92,5.86,17.25,5.86,28
		c0,8.11-1.12,15.44-3.37,21.99c-2.25,6.55-5.45,12.17-9.6,16.86c-4.15,4.69-9.16,8.26-15.03,10.7
		C949.64,475.43,943.05,476.65,935.72,476.65z M935.72,464.63c7.04,0,13.05-1.61,18.03-4.84s8.82-7.92,11.51-14.07
		c2.69-6.16,4.03-13.53,4.03-22.14c0-13-2.91-23.06-8.72-30.2c-5.82-7.13-14.1-10.7-24.85-10.7c-7.04,0-13.07,1.59-18.1,4.76
		c-5.03,3.18-8.87,7.82-11.51,13.93c-2.64,6.11-3.96,13.51-3.96,22.21c0,12.9,2.93,22.97,8.8,30.2
		C916.81,461.02,925.06,464.63,935.72,464.63z"/>
	<path class="st0" d="M1011.36,476.36c-2.15,0-3.81-0.61-4.98-1.83s-1.76-2.95-1.76-5.2v-90.45c0-2.25,0.61-3.96,1.83-5.13
		c1.22-1.17,2.91-1.76,5.06-1.76h34.89c11.14,0,19.72,2.62,25.73,7.84c6.01,5.23,9.02,12.63,9.02,22.21c0,6.26-1.37,11.61-4.1,16.05
		c-2.74,4.45-6.7,7.84-11.87,10.19c-5.18,2.35-11.43,3.52-18.76,3.52l1.47-2.05h3.23c3.91,0,7.3,0.98,10.19,2.93
		c2.88,1.96,5.45,5.08,7.7,9.38l13.49,24.77c0.88,1.56,1.27,3.08,1.17,4.54c-0.1,1.47-0.64,2.66-1.61,3.59
		c-0.98,0.93-2.4,1.39-4.25,1.39c-1.96,0-3.52-0.42-4.69-1.25s-2.2-2.08-3.08-3.74l-15.83-29.02c-2.15-4.1-4.59-6.82-7.33-8.14
		c-2.74-1.32-6.4-1.98-10.99-1.98h-17.59v37.09c0,2.25-0.56,3.98-1.69,5.2C1015.44,475.75,1013.7,476.36,1011.36,476.36z
		 M1018.25,421.68h25.95c7.82,0,13.68-1.64,17.59-4.91c3.91-3.27,5.86-8.09,5.86-14.44c0-6.35-1.96-11.14-5.86-14.37
		c-3.91-3.23-9.77-4.84-17.59-4.84h-25.95V421.68z"/>
	<path class="st0" d="M1109.72,476.36c-1.96,0-3.47-0.59-4.54-1.76c-1.08-1.17-1.61-2.73-1.61-4.69v-92.5
		c0-2.05,0.56-3.64,1.69-4.76c1.12-1.12,2.66-1.69,4.62-1.69c1.76,0,3.15,0.34,4.18,1.03c1.03,0.69,1.98,1.86,2.86,3.52l39.29,73.73
		h-4.54l39.29-73.73c0.88-1.66,1.81-2.83,2.79-3.52c0.98-0.68,2.35-1.03,4.1-1.03c1.95,0,3.47,0.56,4.54,1.69
		c1.07,1.12,1.61,2.71,1.61,4.76v92.5c0,1.96-0.51,3.52-1.54,4.69c-1.03,1.17-2.57,1.76-4.62,1.76c-2.05,0-3.59-0.59-4.62-1.76
		c-1.03-1.17-1.54-2.73-1.54-4.69V390.9h3.23l-35.18,65.82c-0.78,1.27-1.59,2.22-2.42,2.86c-0.83,0.64-1.98,0.95-3.45,0.95
		c-1.37,0-2.52-0.34-3.44-1.03c-0.93-0.68-1.74-1.61-2.42-2.79l-35.62-65.97h3.52v79.16c0,1.96-0.51,3.52-1.54,4.69
		S1111.77,476.36,1109.72,476.36z"/>
	<path class="st0" d="M1227.57,476.36c-1.76,0-3.15-0.39-4.18-1.17c-1.03-0.78-1.64-1.86-1.83-3.23c-0.2-1.37,0.1-2.88,0.88-4.54
		l40.02-90.59c0.88-2.05,2-3.54,3.37-4.47c1.37-0.93,2.88-1.39,4.54-1.39c1.66,0,3.15,0.46,4.47,1.39c1.32,0.93,2.47,2.42,3.45,4.47
		l40.02,90.59c0.78,1.66,1.1,3.2,0.95,4.62c-0.15,1.42-0.71,2.49-1.69,3.23c-0.98,0.73-2.35,1.1-4.1,1.1
		c-1.96,0-3.52-0.51-4.69-1.54c-1.17-1.03-2.2-2.51-3.08-4.47l-10.41-24.33l6.3,3.52h-62.74l6.3-3.52l-10.41,24.33
		c-0.88,2.15-1.86,3.69-2.93,4.62C1230.75,475.9,1229.33,476.36,1227.57,476.36z M1270.09,387.38l-22.87,54.09l-3.52-3.08h53.07
		l-3.37,3.08l-23.01-54.09H1270.09z"/>
	<path class="st0" d="M1357.31,476.36c-2.25,0-3.96-0.61-5.13-1.83c-1.17-1.22-1.76-2.95-1.76-5.2v-85.76h-32.1
		c-1.86,0-3.32-0.51-4.4-1.54c-1.08-1.03-1.61-2.47-1.61-4.32c0-1.86,0.54-3.27,1.61-4.25c1.07-0.98,2.54-1.47,4.4-1.47h77.84
		c1.95,0,3.45,0.49,4.47,1.47c1.03,0.98,1.54,2.4,1.54,4.25c0,1.86-0.51,3.3-1.54,4.32c-1.03,1.03-2.52,1.54-4.47,1.54h-32.1v85.76
		c0,2.25-0.56,3.98-1.69,5.2C1361.24,475.75,1359.55,476.36,1357.31,476.36z"/>
	<path class="st0" d="M1420.93,476.36c-2.15,0-3.81-0.61-4.98-1.83s-1.76-2.95-1.76-5.2V378c0-2.35,0.59-4.1,1.76-5.28
		c1.17-1.17,2.83-1.76,4.98-1.76c2.25,0,3.96,0.59,5.13,1.76c1.17,1.17,1.76,2.93,1.76,5.28v91.33c0,2.25-0.56,3.98-1.69,5.2
		C1425,475.75,1423.27,476.36,1420.93,476.36z"/>
	<path class="st0" d="M1498.03,476.65c-10.26,0-19.06-2.15-26.39-6.45c-7.33-4.3-12.97-10.43-16.93-18.4
		c-3.96-7.96-5.94-17.37-5.94-28.22c0-8.11,1.12-15.42,3.37-21.92c2.25-6.5,5.47-12.07,9.67-16.71c4.2-4.64,9.36-8.18,15.47-10.63
		c6.11-2.44,13.02-3.67,20.74-3.67c5.86,0,11.51,0.83,16.93,2.49c5.42,1.66,10.09,4.01,14,7.04c1.56,1.08,2.59,2.3,3.08,3.67
		c0.49,1.37,0.56,2.66,0.22,3.88c-0.34,1.22-0.98,2.25-1.91,3.08c-0.93,0.83-2.08,1.27-3.44,1.32c-1.37,0.05-2.84-0.46-4.4-1.54
		c-3.42-2.64-7.16-4.57-11.21-5.79c-4.06-1.22-8.38-1.83-12.97-1.83c-7.53,0-13.9,1.59-19.13,4.76c-5.23,3.18-9.19,7.77-11.87,13.78
		c-2.69,6.01-4.03,13.37-4.03,22.06c0,8.6,1.34,15.96,4.03,22.06c2.69,6.11,6.65,10.75,11.87,13.93c5.23,3.18,11.6,4.76,19.13,4.76
		c4.59,0,8.96-0.63,13.12-1.91c4.15-1.27,7.99-3.23,11.51-5.86c1.56-1.07,3-1.56,4.32-1.47c1.32,0.1,2.42,0.51,3.3,1.25
		c0.88,0.73,1.49,1.71,1.83,2.93c0.34,1.22,0.32,2.47-0.07,3.74c-0.39,1.27-1.27,2.4-2.64,3.37c-4.01,3.42-8.77,5.99-14.29,7.7
		C1509.88,475.8,1504.09,476.65,1498.03,476.65z"/>
	<path class="st0" d="M1547.58,476.36c-1.76,0-3.15-0.39-4.18-1.17c-1.03-0.78-1.64-1.86-1.83-3.23c-0.2-1.37,0.1-2.88,0.88-4.54
		l40.02-90.59c0.88-2.05,2-3.54,3.37-4.47c1.37-0.93,2.88-1.39,4.54-1.39c1.66,0,3.15,0.46,4.47,1.39c1.32,0.93,2.47,2.42,3.44,4.47
		l40.02,90.59c0.78,1.66,1.1,3.2,0.95,4.62c-0.15,1.42-0.71,2.49-1.69,3.23c-0.98,0.73-2.34,1.1-4.1,1.1
		c-1.96,0-3.52-0.51-4.69-1.54c-1.17-1.03-2.2-2.51-3.08-4.47l-10.41-24.33l6.3,3.52h-62.74l6.3-3.52l-10.41,24.33
		c-0.88,2.15-1.86,3.69-2.93,4.62C1550.75,475.9,1549.34,476.36,1547.58,476.36z M1590.09,387.38l-22.87,54.09l-3.52-3.08h53.07
		l-3.37,3.08l-23.01-54.09H1590.09z"/>
</g>
<g>
</g>
<g>
</g>
<g>
</g>
<g>
</g>
<g>
</g>
<g>
</g>
<g>
</g>
<g>
</g>
<g>
</g>
<g>
</g>
<g>
</g>
<g>
</g>
<g>
</g>
<g>
</g>
<g>
</g>
</svg>
