<?xml version="1.0" encoding="utf-8"?>
<!-- Generator: Adobe Illustrator 28.0.0, SVG Export Plug-In . SVG Version: 6.00 Build 0)  -->
<svg version="1.0" id="Layer_1" xmlns="http://www.w3.org/2000/svg" xmlns:xlink="http://www.w3.org/1999/xlink" x="0px" y="0px"
	 viewBox="0 0 1920 1080" style="enable-background:new 0 0 1920 1080;" xml:space="preserve">
<style type="text/css">
	.st0{fill:#404F94;}
</style>
<g>
	<path class="st0" d="M483.56,476.36c-1.96,0-3.52-0.49-4.69-1.47c-1.17-0.98-2.15-2.54-2.93-4.69l-31.96-91.18
		c-0.88-2.25-0.76-4.15,0.37-5.72c1.12-1.56,3-2.35,5.64-2.35c1.86,0,3.32,0.44,4.4,1.32c1.07,0.88,1.95,2.35,2.64,4.4l29.46,86.49
		h-5.28l30.2-86.2c0.78-2.05,1.71-3.57,2.79-4.54c1.07-0.98,2.49-1.47,4.25-1.47c1.85,0,3.3,0.49,4.32,1.47
		c1.03,0.98,1.88,2.54,2.57,4.69l29.61,86.05h-4.69l29.76-86.49c0.68-1.95,1.56-3.39,2.64-4.32c1.07-0.93,2.59-1.39,4.54-1.39
		c2.25,0,3.91,0.78,4.98,2.35c1.07,1.56,1.22,3.47,0.44,5.72l-32.25,91.33c-0.68,2.05-1.61,3.57-2.79,4.54
		c-1.17,0.98-2.74,1.47-4.69,1.47c-2.05,0-3.66-0.49-4.84-1.47c-1.17-0.98-2.15-2.54-2.93-4.69l-28.58-82.09h3.23l-28.73,82.24
		c-0.78,2.05-1.74,3.57-2.86,4.54C487.05,475.87,485.51,476.36,483.56,476.36z"/>
	<path class="st0" d="M618.86,475.34c-2.35,0-4.15-0.63-5.42-1.91c-1.27-1.27-1.91-3.08-1.91-5.42v-88.69
		c0-2.35,0.63-4.15,1.91-5.42c1.27-1.27,3.08-1.91,5.42-1.91h53.95c1.85,0,3.3,0.47,4.32,1.39c1.03,0.93,1.54,2.27,1.54,4.03
		c0,1.86-0.51,3.28-1.54,4.25c-1.03,0.98-2.47,1.47-4.32,1.47h-48.08v34.16h45c1.86,0,3.27,0.49,4.25,1.47
		c0.98,0.98,1.47,2.35,1.47,4.1c0,1.86-0.49,3.25-1.47,4.18c-0.98,0.93-2.4,1.39-4.25,1.39h-45v35.77h48.08
		c1.85,0,3.3,0.47,4.32,1.39c1.03,0.93,1.54,2.32,1.54,4.18c0,1.86-0.51,3.25-1.54,4.18c-1.03,0.93-2.47,1.39-4.32,1.39H618.86z"/>
	<path class="st0" d="M704.76,475.34c-2.35,0-4.15-0.63-5.42-1.91c-1.27-1.27-1.91-3.08-1.91-5.42v-88.69
		c0-2.35,0.63-4.15,1.91-5.42c1.27-1.27,3.08-1.91,5.42-1.91h34.74c7.13,0,13.22,1.08,18.25,3.23c5.03,2.15,8.87,5.23,11.51,9.24
		c2.64,4.01,3.96,8.85,3.96,14.51c0,6.35-1.86,11.68-5.57,15.98c-3.72,4.3-8.8,7.18-15.25,8.65v-2.2
		c7.23,0.88,12.92,3.54,17.08,7.99c4.15,4.45,6.23,10.24,6.23,17.37c0,9.19-3.01,16.25-9.02,21.18c-6.01,4.94-14.49,7.4-25.43,7.4
		H704.76z M710.63,417.58h26.83c7.43,0,13.02-1.49,16.78-4.47c3.76-2.98,5.64-7.3,5.64-12.97c0-5.67-1.88-9.99-5.64-12.97
		c-3.76-2.98-9.36-4.47-16.78-4.47h-26.83V417.58z M710.63,464.63h29.17c7.62,0,13.29-1.49,17-4.47c3.71-2.98,5.57-7.55,5.57-13.71
		s-1.86-10.7-5.57-13.63c-3.72-2.93-9.38-4.4-17-4.4h-29.17V464.63z"/>
	<path class="st0" d="M842.55,475.34c-2.35,0-4.15-0.63-5.42-1.91c-1.27-1.27-1.91-3.08-1.91-5.42v-88.69
		c0-2.35,0.63-4.15,1.91-5.42c1.27-1.27,3.08-1.91,5.42-1.91h28.29c16.91,0,29.93,4.42,39.07,13.27
		c9.14,8.85,13.71,21.62,13.71,38.33c0,8.31-1.17,15.69-3.52,22.14c-2.35,6.45-5.77,11.85-10.26,16.2
		c-4.5,4.35-9.99,7.67-16.49,9.97c-6.5,2.3-14,3.44-22.5,3.44H842.55z M848.86,463.75h21.11c6.65,0,12.41-0.83,17.3-2.49
		c4.89-1.66,8.96-4.15,12.24-7.48c3.27-3.32,5.74-7.5,7.4-12.53c1.66-5.03,2.49-10.92,2.49-17.66c0-13.39-3.3-23.4-9.9-30.05
		c-6.6-6.64-16.44-9.97-29.54-9.97h-21.11V463.75z"/>
	<path class="st0" d="M952.06,475.34c-2.35,0-4.15-0.63-5.42-1.91c-1.27-1.27-1.91-3.08-1.91-5.42v-88.69
		c0-2.35,0.63-4.15,1.91-5.42c1.27-1.27,3.08-1.91,5.42-1.91H1006c1.86,0,3.3,0.47,4.32,1.39c1.03,0.93,1.54,2.27,1.54,4.03
		c0,1.86-0.51,3.28-1.54,4.25c-1.03,0.98-2.47,1.47-4.32,1.47h-48.08v34.16h45c1.86,0,3.27,0.49,4.25,1.47
		c0.98,0.98,1.47,2.35,1.47,4.1c0,1.86-0.49,3.25-1.47,4.18c-0.98,0.93-2.4,1.39-4.25,1.39h-45v35.77H1006
		c1.86,0,3.3,0.47,4.32,1.39c1.03,0.93,1.54,2.32,1.54,4.18c0,1.86-0.51,3.25-1.54,4.18c-1.03,0.93-2.47,1.39-4.32,1.39H952.06z"/>
	<path class="st0" d="M1063.03,476.65c-4.59,0-9.04-0.37-13.34-1.1c-4.3-0.73-8.36-1.83-12.17-3.3c-3.81-1.47-7.23-3.27-10.26-5.42
		c-1.27-0.88-2.18-1.95-2.71-3.22c-0.54-1.27-0.69-2.52-0.44-3.74c0.24-1.22,0.78-2.27,1.61-3.15c0.83-0.88,1.83-1.42,3.01-1.61
		c1.17-0.19,2.44,0.2,3.81,1.17c4.49,3.03,9.21,5.23,14.15,6.6c4.93,1.37,10.38,2.05,16.34,2.05c8.6,0,14.93-1.56,18.98-4.69
		c4.05-3.13,6.08-7.23,6.08-12.31c0-4.2-1.47-7.5-4.4-9.89c-2.93-2.39-7.87-4.27-14.81-5.64l-15.54-3.23
		c-9.19-1.95-16.05-5.18-20.6-9.67c-4.54-4.49-6.82-10.5-6.82-18.03c0-4.59,0.93-8.77,2.79-12.53c1.86-3.76,4.49-7.01,7.92-9.75
		c3.42-2.73,7.45-4.84,12.09-6.3c4.64-1.47,9.8-2.2,15.46-2.2c6.06,0,11.75,0.83,17.08,2.49c5.33,1.66,10.14,4.1,14.44,7.33
		c1.17,0.88,1.95,1.93,2.34,3.15c0.39,1.22,0.46,2.42,0.22,3.59c-0.25,1.17-0.78,2.15-1.61,2.93c-0.83,0.78-1.86,1.22-3.08,1.32
		c-1.22,0.1-2.57-0.34-4.03-1.32c-3.91-2.73-7.92-4.71-12.02-5.94c-4.1-1.22-8.6-1.83-13.49-1.83c-4.98,0-9.31,0.78-12.97,2.35
		c-3.66,1.56-6.5,3.74-8.5,6.52c-2,2.79-3,6.04-3,9.75c0,4.5,1.37,8.01,4.1,10.55c2.73,2.54,7.33,4.5,13.78,5.86l15.39,3.08
		c9.77,2.05,17.03,5.2,21.77,9.46c4.74,4.25,7.11,9.94,7.11,17.08c0,4.5-0.9,8.55-2.71,12.17c-1.81,3.62-4.38,6.72-7.7,9.31
		c-3.32,2.59-7.38,4.59-12.17,6.01C1074.36,475.94,1068.99,476.65,1063.03,476.65z"/>
	<path class="st0" d="M1126.5,476.36c-2.15,0-3.81-0.61-4.98-1.83s-1.76-2.95-1.76-5.2V378c0-2.35,0.59-4.1,1.76-5.28
		c1.17-1.17,2.83-1.76,4.98-1.76c2.25,0,3.96,0.59,5.13,1.76c1.17,1.17,1.76,2.93,1.76,5.28v91.33c0,2.25-0.56,3.98-1.69,5.2
		C1130.58,475.75,1128.85,476.36,1126.5,476.36z"/>
	<path class="st0" d="M1205.81,476.65c-11.04,0-20.4-2.13-28.07-6.38c-7.67-4.25-13.49-10.33-17.44-18.25
		c-3.96-7.92-5.94-17.35-5.94-28.29c0-8.21,1.12-15.56,3.37-22.06c2.25-6.5,5.55-12.07,9.9-16.71c4.35-4.64,9.62-8.18,15.83-10.63
		c6.21-2.44,13.22-3.67,21.04-3.67c6.06,0,11.92,0.81,17.59,2.42c5.67,1.61,10.85,4.23,15.54,7.84c1.17,0.88,1.93,1.91,2.27,3.08
		c0.34,1.17,0.37,2.35,0.07,3.52c-0.29,1.17-0.86,2.2-1.69,3.08c-0.83,0.88-1.86,1.39-3.08,1.54c-1.22,0.15-2.52-0.22-3.88-1.1
		c-4.01-2.93-8.19-5.03-12.53-6.3c-4.35-1.27-9.11-1.91-14.29-1.91c-7.72,0-14.27,1.59-19.64,4.76c-5.38,3.18-9.41,7.82-12.09,13.93
		c-2.69,6.11-4.03,13.51-4.03,22.21c0,13.39,3.15,23.55,9.46,30.49c6.3,6.94,15.66,10.41,28.07,10.41c4.59,0,9.06-0.44,13.41-1.32
		c4.35-0.88,8.53-2.1,12.53-3.66l-2.93,7.33v-35.33h-19.94c-1.76,0-3.15-0.49-4.18-1.47c-1.03-0.98-1.54-2.29-1.54-3.96
		c0-1.66,0.51-2.93,1.54-3.81c1.03-0.88,2.42-1.32,4.18-1.32h25.95c1.76,0,3.15,0.49,4.18,1.47c1.03,0.98,1.54,2.4,1.54,4.25v37.67
		c0,1.56-0.29,2.91-0.88,4.03c-0.59,1.12-1.56,1.93-2.93,2.42c-4.1,1.66-8.99,3.03-14.66,4.1
		C1216.85,476.12,1211.28,476.65,1205.81,476.65z"/>
	<path class="st0" d="M1271.33,476.36c-1.96,0-3.5-0.59-4.62-1.76c-1.12-1.17-1.69-2.79-1.69-4.84v-91.91
		c0-2.25,0.54-3.96,1.61-5.13c1.07-1.17,2.49-1.76,4.25-1.76c1.66,0,2.93,0.29,3.81,0.88c0.88,0.59,1.86,1.61,2.93,3.08l62.15,82.38
		h-3.67v-79.75c0-2.15,0.56-3.79,1.69-4.91c1.12-1.12,2.71-1.69,4.76-1.69c2.05,0,3.61,0.56,4.69,1.69
		c1.07,1.12,1.61,2.76,1.61,4.91v92.21c0,2.05-0.51,3.66-1.54,4.84c-1.03,1.17-2.37,1.76-4.03,1.76c-1.56,0-2.86-0.32-3.88-0.95
		s-2.08-1.69-3.15-3.15l-62.01-82.38h3.37v79.89c0,2.05-0.54,3.66-1.61,4.84C1274.94,475.78,1273.38,476.36,1271.33,476.36z"/>
	<path class="st0" d="M1380.98,475.34c-2.35,0-4.16-0.63-5.42-1.91c-1.27-1.27-1.91-3.08-1.91-5.42v-88.69
		c0-2.35,0.63-4.15,1.91-5.42c1.27-1.27,3.08-1.91,5.42-1.91h53.95c1.86,0,3.3,0.47,4.32,1.39c1.03,0.93,1.54,2.27,1.54,4.03
		c0,1.86-0.51,3.28-1.54,4.25c-1.03,0.98-2.47,1.47-4.32,1.47h-48.08v34.16h45c1.86,0,3.27,0.49,4.25,1.47
		c0.98,0.98,1.47,2.35,1.47,4.1c0,1.86-0.49,3.25-1.47,4.18c-0.98,0.93-2.4,1.39-4.25,1.39h-45v35.77h48.08
		c1.86,0,3.3,0.47,4.32,1.39c1.03,0.93,1.54,2.32,1.54,4.18c0,1.86-0.51,3.25-1.54,4.18c-1.03,0.93-2.47,1.39-4.32,1.39H1380.98z"/>
	<path class="st0" d="M1466.3,476.36c-2.15,0-3.81-0.61-4.98-1.83s-1.76-2.95-1.76-5.2v-90.45c0-2.25,0.61-3.96,1.83-5.13
		c1.22-1.17,2.91-1.76,5.06-1.76h34.89c11.14,0,19.72,2.62,25.73,7.84c6.01,5.23,9.01,12.63,9.01,22.21c0,6.26-1.37,11.61-4.1,16.05
		c-2.74,4.45-6.69,7.84-11.87,10.19c-5.18,2.35-11.43,3.52-18.76,3.52l1.47-2.05h3.22c3.91,0,7.3,0.98,10.19,2.93
		c2.88,1.96,5.45,5.08,7.7,9.38l13.49,24.77c0.88,1.56,1.27,3.08,1.17,4.54c-0.1,1.47-0.64,2.66-1.61,3.59
		c-0.98,0.93-2.4,1.39-4.25,1.39c-1.96,0-3.52-0.42-4.69-1.25c-1.17-0.83-2.2-2.08-3.08-3.74l-15.83-29.02
		c-2.15-4.1-4.59-6.82-7.33-8.14c-2.74-1.32-6.4-1.98-10.99-1.98h-17.59v37.09c0,2.25-0.56,3.98-1.69,5.2
		C1470.38,475.75,1468.64,476.36,1466.3,476.36z M1473.19,421.68h25.95c7.82,0,13.68-1.64,17.59-4.91
		c3.91-3.27,5.86-8.09,5.86-14.44c0-6.35-1.96-11.14-5.86-14.37c-3.91-3.23-9.77-4.84-17.59-4.84h-25.95V421.68z"/>
</g>
<g>
</g>
<g>
</g>
<g>
</g>
<g>
</g>
<g>
</g>
<g>
</g>
<g>
</g>
<g>
</g>
<g>
</g>
<g>
</g>
<g>
</g>
<g>
</g>
<g>
</g>
<g>
</g>
<g>
</g>
</svg>
