<?xml version="1.0" encoding="utf-8"?>
<!-- Generator: Adobe Illustrator 28.0.0, SVG Export Plug-In . SVG Version: 6.00 Build 0)  -->
<svg version="1.0" id="Layer_1" xmlns="http://www.w3.org/2000/svg" xmlns:xlink="http://www.w3.org/1999/xlink" x="0px" y="0px"
	 viewBox="0 0 800 800" style="enable-background:new 0 0 800 800;" xml:space="preserve">
<style type="text/css">
	.st0{fill:#FF61F6;}
</style>
<path class="st0" d="M416.16,255.85L328.82,403.7l93.45,157.01c1.94,3.56,0,4.35-2.82,4.35h-66.68c-4.7,0-7.98-0.17-9.86-3.38
	c-6.27-12.52-12.53-24.96-18.79-37.33c-6.26-12.36-12.92-24.96-19.95-37.81c-7.05-12.84-14.01-25.84-20.9-39.01
	c-6.26,12.85-13.23,25.69-19.96,38.53c-6.74,12.85-13.39,25.61-19.96,38.29c-6.57,12.69-13.3,25.29-20.19,37.81
	c-1.25,2.89-3.45,3.19-6.58,3.19h-64.33c-2.53,0-2.83-1.9-1.41-4.15l90.63-152.68L153.2,255.36c-1.6-2.19-0.22-4.51,2.35-4.34h66.21
	c2.87-0.16,5.4,0.92,7.04,3.37c5.64,12.85,11.9,25.69,18.78,38.53c6.88,12.85,13.85,25.53,20.9,38.05
	c7.04,12.52,14.01,25.2,19.96,38.05c6.26-13.16,12.6-26.01,19.02-38.53c6.41-12.52,12.99-25.12,19.72-37.81
	c6.73-12.68,13.23-25.28,19.49-37.81c0.83-2.75,2.82-4.14,5.63-3.86h61.52C416.16,251.03,417.13,254.24,416.16,255.85z"/>
<path class="st0" d="M550.93,571.31c-41.41,0.65-84.79-16.4-106.59-54.18c-10.65-18.14-15.97-40.85-15.96-68.15
	c-0.18-22.1,5.33-43.87,15.96-63.09c27.44-49.06,82.73-67.43,135.24-62.61V228.4c0-2.24,0.94-3.37,2.82-3.37h59.17
	c1.62-0.24,3.05,1.23,2.82,2.89v284.64c0,11.74,1.16,23.45,1.88,35.16c0.11,2-1.04,3.98-2.82,4.82
	C614.2,565.04,582.57,571.17,550.93,571.31z M579.57,511.59V380.11c-42.89-11.91-84.53,20.75-84.52,65.98
	C494.03,492.85,534.34,525.16,579.57,511.59z"/>
</svg>
