{
  "accessors": [
    {
      "bufferView": 2,
      "componentType": 5126,
      "count": 49278,
      "max": [
        0.30584463477134705,
        1.9964483976364136,
        0.17085950076580048
      ],
      "min": [
        -0.3024693727493286,
        -2.7882509231567383,
        -0.2610538601875305
      ],
      "type": "VEC3"
    },
    {
      "bufferView": 2,
      "byteOffset": 591336,
      "componentType": 5126,
      "count": 49278,
      "max": [
        0.9999922513961792,
        0.9999958276748657,
        1.0
      ],
      "min": [
        -1.0,
        -0.9987831115722656,
        -0.9996417164802551
      ],
      "type": "VEC3"
    },
    {
      "bufferView": 3,
      "componentType": 5126,
      "count": 49278,
      "max": [
        1.0,
        0.6893831491470337,
        0.9998317956924438,
        1.0
      ],
      "min": [
        -0.999997615814209,
        -0.6927986145019531,
        -0.9995930790901184,
        1.0
      ],
      "type": "VEC4"
    },
    {
      "bufferView": 1,
      "componentType": 5126,
      "count": 49278,
      "max": [
        0.8466227054595947,
        0.9939213395118713
      ],
      "min": [
        0.020410949364304543,
        0.1584109514951706
      ],
      "type": "VEC2"
    },
    {
      "bufferView": 1,
      "byteOffset": 394224,
      "componentType": 5126,
      "count": 49278,
      "max": [
        0.8466227054595947,
        0.9939213395118713
      ],
      "min": [
        0.020410949364304543,
        0.1584109514951706
      ],
      "type": "VEC2"
    },
    {
      "bufferView": 0,
      "componentType": 5125,
      "count": 73920,
      "type": "SCALAR"
    },
    {
      "bufferView": 2,
      "byteOffset": 1182672,
      "componentType": 5126,
      "count": 4506,
      "max": [
        0.17612281441688538,
        0.7112804651260376,
        0.17078900337219238
      ],
      "min": [
        -0.16749237477779388,
        -0.9400959610939026,
        -0.1923898607492447
      ],
      "type": "VEC3"
    },
    {
      "bufferView": 2,
      "byteOffset": 1236744,
      "componentType": 5126,
      "count": 4506,
      "max": [
        0.9998494386672974,
        0.9995660781860352,
        0.999995231628418
      ],
      "min": [
        -0.999843955039978,
        -0.999707818031311,
        -0.9999833106994629
      ],
      "type": "VEC3"
    },
    {
      "bufferView": 3,
      "byteOffset": 788448,
      "componentType": 5126,
      "count": 4506,
      "max": [
        0.9999879598617554,
        0.8513657450675964,
        0.9999009370803833,
        1.0
      ],
      "min": [
        -0.9999943375587463,
        -0.7596631646156311,
        -0.9996674656867981,
        -1.0
      ],
      "type": "VEC4"
    },
    {
      "bufferView": 1,
      "byteOffset": 788448,
      "componentType": 5126,
      "count": 4506,
      "max": [
        0.9725889563560486,
        0.9349141120910645
      ],
      "min": [
        0.048848893493413925,
        0.029960885643959045
      ],
      "type": "VEC2"
    },
    {
      "bufferView": 1,
      "byteOffset": 824496,
      "componentType": 5126,
      "count": 4506,
      "max": [
        0.9725889563560486,
        0.9349141120910645
      ],
      "min": [
        0.048848893493413925,
        0.029960885643959045
      ],
      "type": "VEC2"
    },
    {
      "bufferView": 0,
      "byteOffset": 295680,
      "componentType": 5125,
      "count": 24432,
      "type": "SCALAR"
    }
  ],
  "asset": {
    "extras": {
      "author": "Rohit Pawar (https://sketchfab.com/rohit8999)",
      "license": "CC-BY-4.0 (http://creativecommons.org/licenses/by/4.0/)",
      "source": "https://sketchfab.com/3d-models/mrf-cricket-bat-sports-e89765986baa45c7a89ba14a530bd6da",
      "title": "MRF Cricket Bat (Sports)."
    },
    "generator": "Sketchfab-12.68.0",
    "version": "2.0"
  },
  "bufferViews": [
    {
      "buffer": 0,
      "byteLength": 393408,
      "name": "floatBufferViews",
      "target": 34963
    },
    {
      "buffer": 0,
      "byteLength": 860544,
      "byteOffset": 393408,
      "byteStride": 8,
      "name": "floatBufferViews",
      "target": 34962
    },
    {
      "buffer": 0,
      "byteLength": 1290816,
      "byteOffset": 1253952,
      "byteStride": 12,
      "name": "floatBufferViews",
      "target": 34962
    },
    {
      "buffer": 0,
      "byteLength": 860544,
      "byteOffset": 2544768,
      "byteStride": 16,
      "name": "floatBufferViews",
      "target": 34962
    }
  ],
  "buffers": [
    {
      "byteLength": 3405312,
      "uri": "scene.bin"
    }
  ],
  "images": [
    {
      "uri": "textures/Material.002_baseColor.jpeg"
    },
    {
      "uri": "textures/Material.002_normal.png"
    },
    {
      "uri": "textures/Material_baseColor.jpeg"
    },
    {
      "uri": "textures/Material_normal.png"
    }
  ],
  "materials": [
    {
      "doubleSided": true,
      "name": "Material.002",
      "normalTexture": {
        "index": 1,
        "scale": 0.5794470734967752
      },
      "pbrMetallicRoughness": {
        "baseColorTexture": {
          "index": 0
        },
        "metallicFactor": 0.0,
        "roughnessFactor": 0.8522320976792161
      }
    },
    {
      "doubleSided": true,
      "name": "Material",
      "normalTexture": {
        "index": 3
      },
      "pbrMetallicRoughness": {
        "baseColorTexture": {
          "index": 2
        },
        "metallicFactor": 0.0,
        "roughnessFactor": 0.8085975655875736
      }
    }
  ],
  "meshes": [
    {
      "name": "Bat_Material.002_0",
      "primitives": [
        {
          "attributes": {
            "NORMAL": 1,
            "POSITION": 0,
            "TANGENT": 2,
            "TEXCOORD_0": 3,
            "TEXCOORD_1": 4
          },
          "indices": 5,
          "material": 0,
          "mode": 4
        }
      ]
    },
    {
      "name": "Handel_Material_0",
      "primitives": [
        {
          "attributes": {
            "NORMAL": 7,
            "POSITION": 6,
            "TANGENT": 8,
            "TEXCOORD_0": 9,
            "TEXCOORD_1": 10
          },
          "indices": 11,
          "material": 1,
          "mode": 4
        }
      ]
    }
  ],
  "nodes": [
    {
      "children": [
        1
      ],
      "matrix": [
        1.0,
        0.0,
        0.0,
        0.0,
        0.0,
        2.220446049250313e-16,
        -1.0,
        0.0,
        0.0,
        1.0,
        2.220446049250313e-16,
        0.0,
        0.0,
        0.0,
        0.0,
        1.0
      ],
      "name": "Sketchfab_model"
    },
    {
      "children": [
        2
      ],
      "matrix": [
        1.0,
        0.0,
        0.0,
        0.0,
        0.0,
        0.0,
        1.0,
        0.0,
        0.0,
        -1.0,
        0.0,
        0.0,
        0.0,
        0.0,
        0.0,
        1.0
      ],
      "name": "898c73b5a45d4fe0a9d921b201d89b4e.fbx"
    },
    {
      "children": [
        3,
        6,
        8
      ],
      "name": "RootNode"
    },
    {
      "children": [
        4
      ],
      "matrix": [
        -29.08647719990347,
        -5.518906457566863,
        -95.51711910171437,
        0.0,
        56.63930913109449,
        79.46723428563203,
        -21.83912397841966,
        0.0,
        77.11008775993375,
        -60.45246356562044,
        -19.98834696773717,
        0.0,
        281.6419372558594,
        786.3925170898438,
        135.14370727539063,
        1.0
      ],
      "name": "Light"
    },
    {
      "children": [
        5
      ],
      "matrix": [
        1.0,
        0.0,
        0.0,
        0.0,
        0.0,
        2.220446049250313e-16,
        1.0,
        0.0,
        0.0,
        -1.0,
        2.220446049250313e-16,
        0.0,
        0.0,
        0.0,
        0.0,
        1.0
      ],
      "name": "Object_4"
    },
    {
      "name": "Object_5"
    },
    {
      "children": [
        7
      ],
      "matrix": [
        -15.640216685118219,
        -23.55031795414301,
        95.92063215064987,
        0.0,
        -0.40707504075900464,
        97.13032196864259,
        23.780944436673902,
        0.0,
        -98.76851440505794,
        3.3289225412164436,
        -15.287261455584886,
        0.0,
        168.7222442626953,
        594.092529296875,
        -1163.183349609375,
        1.0
      ],
      "name": "Camera"
    },
    {
      "name": "Object_7"
    },
    {
      "children": [
        9,
        10
      ],
      "matrix": [
        149.30694721237296,
        5.532630211064816,
        103.96252911056963,
        0.0,
        -101.97055108968317,
        44.42769124717982,
        144.08181322744494,
        0.0,
        -20.9958113126409,
        -176.4283054859256,
        39.542449568378906,
        0.0,
        -111.66641998291016,
        415.12469482421875,
        3.1632239818573,
        1.0
      ],
      "name": "Bat"
    },
    {
      "mesh": 0,
      "name": "Bat_Material.002_0"
    },
    {
      "children": [
        11
      ],
      "matrix": [
        0.9999999403953537,
        -5.6577846740957214e-08,
        3.7252870233039906e-09,
        0.0,
        5.65778495859038e-08,
        0.9999999999999883,
        1.4156103136930823e-07,
        0.0,
        -3.725295254567185e-09,
        -1.4156103115853928e-07,
        0.99999999999999,
        0.0,
        0.0009485483169555664,
        1.3151698112487793,
        0.02996087074279785,
        1.0
      ],
      "name": "Handel"
    },
    {
      "mesh": 1,
      "name": "Handel_Material_0"
    }
  ],
  "samplers": [
    {
      "magFilter": 9729,
      "minFilter": 9987,
      "wrapS": 10497,
      "wrapT": 10497
    }
  ],
  "scene": 0,
  "scenes": [
    {
      "name": "Sketchfab_Scene",
      "nodes": [
        0
      ]
    }
  ],
  "textures": [
    {
      "sampler": 0,
      "source": 0
    },
    {
      "sampler": 0,
      "source": 1
    },
    {
      "sampler": 0,
      "source": 2
    },
    {
      "sampler": 0,
      "source": 3
    }
  ]
}
